<?xml version="1.0" standalone="no"?>
<!DOCTYPE svg PUBLIC "-//W3C//DTD SVG 20010904//EN"
 "http://www.w3.org/TR/2001/REC-SVG-20010904/DTD/svg10.dtd">
<svg version="1.0" xmlns="http://www.w3.org/2000/svg"
 width="700.000000pt" height="700.000000pt" viewBox="0 0 700.000000 700.000000"
 preserveAspectRatio="xMidYMid meet">
<metadata>
Created by potrace 1.14, written by Peter Selinger 2001-2017
</metadata>
<g transform="translate(0.000000,700.000000) scale(0.100000,-0.100000)"
fill="#000000" stroke="none">
<path d="M3400 6704 c-8 -1 -49 -8 -90 -14 -101 -17 -219 -54 -311 -100 -42
-21 -233 -139 -425 -263 -192 -124 -425 -274 -517 -334 -92 -59 -237 -153
-322 -208 -86 -55 -188 -121 -228 -146 -132 -85 -1060 -684 -1180 -762 -65
-42 -120 -77 -123 -77 -3 0 -11 -6 -19 -12 -7 -7 -49 -35 -94 -63 -44 -27 -81
-53 -81 -56 0 -8 25 -24 293 -198 120 -78 223 -141 228 -141 5 0 9 -4 9 -8 0
-5 10 -14 23 -21 31 -17 54 -31 117 -72 30 -20 134 -87 230 -149 96 -62 198
-128 225 -145 82 -54 903 -583 995 -642 47 -30 157 -101 245 -158 430 -278
594 -380 649 -405 64 -29 206 -74 266 -84 19 -3 46 -8 60 -11 60 -13 277 -7
359 10 119 25 248 70 329 116 30 17 170 105 311 196 250 162 477 308 508 328
9 6 58 37 109 70 51 33 135 87 186 120 270 173 525 337 693 447 55 36 152 98
215 138 63 41 165 106 225 145 61 39 115 74 121 78 7 4 10 -448 10 -1553 -1
-1378 1 -1559 14 -1562 8 -2 139 -3 290 -3 l275 1 3 1751 2 1750 -102 66 c-57
36 -218 140 -358 231 -140 91 -293 189 -340 219 -47 30 -270 174 -496 320
-226 146 -445 286 -485 312 -41 27 -110 71 -154 100 -44 28 -105 67 -135 87
-30 19 -100 64 -155 100 -829 537 -850 548 -1084 589 -53 10 -259 19 -291 13z"/>
<path d="M1169 3202 c0 -9 -1 -498 -2 -1086 l-2 -1070 65 -62 c119 -115 243
-200 432 -299 231 -120 557 -236 798 -284 57 -12 84 -17 123 -26 41 -9 112
-21 172 -29 17 -2 66 -9 110 -15 224 -29 339 -35 630 -35 378 0 569 16 925 79
168 30 493 120 595 165 11 5 58 25 105 43 281 114 574 302 690 441 l24 29 0
1082 c1 719 -2 1081 -9 1078 -5 -4 -122 -78 -260 -166 -137 -89 -284 -182
-325 -209 -41 -26 -82 -52 -90 -58 -81 -53 -202 -131 -395 -255 -126 -81 -267
-172 -311 -201 -164 -106 -392 -202 -565 -239 -220 -47 -456 -54 -643 -21 -11
2 -41 7 -66 10 -175 27 -448 142 -650 273 -182 119 -628 407 -670 433 -22 14
-184 118 -360 232 -230 148 -320 202 -321 190z"/>
</g>
</svg>
